<?xml version="1.0" encoding="UTF-8"?>
<svg version="1.1" xmlns="http://www.w3.org/2000/svg" width="251" height="356">
<path d="M0 0 C3.27437284 2.80660529 5.39967519 4.63283697 6.00976562 9.01147461 C6.01685547 10.04796143 6.02394531 11.08444824 6.03125 12.15234375 C6.05316406 13.28994141 6.07507813 14.42753906 6.09765625 15.59960938 C6.10667969 16.78361328 6.11570312 17.96761719 6.125 19.1875 C6.14291165 21.53008788 6.17368176 23.87262095 6.21875 26.21484375 C6.22583984 27.2524585 6.23292969 28.29007324 6.24023438 29.35913086 C6.76142413 33.27499881 8.16901906 36.11757038 11.3125 38.5625 C18.42218681 40.67619067 25.88577936 38.90772082 32.625 36.25 C36.17087921 33.48421422 37.91093316 31.63641061 38.625 27.25 C38.66937985 24.51231804 38.67363359 21.79813925 38.625 19.0625 C38.57932216 16.45201142 38.57777989 13.86186209 38.625 11.25 C39.625 10.25 39.625 10.25 41.33227539 10.21289062 C49.86490143 10.92163104 57.88787622 13.35082256 66.0625 15.75 C67.60790957 16.1979187 69.15331973 16.64583535 70.69873047 17.09375 C80.60211259 19.98271975 90.45095818 23.02444028 100.25 26.25 C101.39267334 26.62318359 102.53534668 26.99636719 103.71264648 27.38085938 C104.74848877 27.72955078 105.78433105 28.07824219 106.8515625 28.4375 C107.75471191 28.74042969 108.65786133 29.04335937 109.58837891 29.35546875 C111.625 30.25 111.625 30.25 112.625 32.25 C112.75996727 35.0298951 112.83493508 37.78606596 112.86547852 40.56762695 C112.87847488 41.42795532 112.89147125 42.28828369 112.90486145 43.17468262 C113.03150306 52.16628666 113.08830265 61.15882785 113.13989258 70.15112305 C113.16666893 74.4205276 113.21544134 78.68882046 113.28344727 82.95776367 C113.36529344 88.10842199 113.40805987 93.25801893 113.42295647 98.40929222 C113.43522131 100.37301166 113.46129357 102.33669508 113.50140572 104.30004311 C113.55477048 107.0493581 113.55788609 109.79446771 113.54907227 112.54418945 C113.58985901 113.76083534 113.58985901 113.76083534 113.63146973 115.00205994 C113.5928146 117.34092177 113.47540175 119.06765969 112.625 121.25 C110.19872163 123.4648106 107.5726518 124.8398867 104.625 126.25 C103.61179688 126.84941406 102.59859375 127.44882812 101.5546875 128.06640625 C83.95227954 138.12814072 66.06841216 147.68520904 48.13525391 157.1418457 C42.41583541 160.15958501 36.70451356 163.17478745 31.08203125 166.37109375 C30.30706299 166.80526611 29.53209473 167.23943848 28.73364258 167.68676758 C27.39421529 168.44154269 26.06334595 169.21187574 24.74487305 170.00268555 C21.06014467 172.05926614 18.09676223 172.69507155 13.92138672 171.92285156 C8.7922284 170.41998527 4.01705533 168.07370775 -0.8125 165.8125 C-2.72820823 164.9324112 -4.64599065 164.05695273 -6.56393433 163.18174744 C-7.94395048 162.55191406 -9.32343352 161.92091148 -10.7024231 161.28883362 C-19.63391038 157.20029179 -28.63005192 153.25890056 -37.625 149.3125 C-38.48916534 148.93246826 -39.35333069 148.55243652 -40.24368286 148.16088867 C-49.5435836 144.07159061 -58.85778393 140.02300582 -68.2265625 136.09375 C-68.99875122 135.76934433 -69.77093994 135.44493866 -70.56652832 135.11070251 C-74.19390353 133.58831867 -77.82462044 132.07494798 -81.46191406 130.57641602 C-82.74292138 130.04202797 -84.02385066 129.50745278 -85.3046875 128.97265625 C-86.41054199 128.51640869 -87.51639648 128.06016113 -88.65576172 127.59008789 C-92.74457087 125.57505167 -92.74457087 125.57505167 -94.375 123.25 C-94.6763742 120.42290432 -94.79504034 117.81514533 -94.77905273 114.98657227 C-94.78934761 113.72271194 -94.78934761 113.72271194 -94.79985046 112.43331909 C-94.81817286 109.6441774 -94.81427319 106.8555953 -94.80859375 104.06640625 C-94.81315306 102.12971309 -94.81845788 100.19302156 -94.82447815 98.2563324 C-94.83342003 94.19515414 -94.83097402 90.1341724 -94.82104492 86.07299805 C-94.80955597 80.86616401 -94.82976016 75.6600082 -94.85896206 70.45326328 C-94.87730058 66.45297428 -94.87703626 62.45284848 -94.87132454 58.452528 C-94.87117103 56.53276557 -94.87724013 54.61299228 -94.88961601 52.69326973 C-94.90447936 50.00935348 -94.89388357 47.32669879 -94.87670898 44.64282227 C-94.88637695 43.84840225 -94.89604492 43.05398224 -94.90600586 42.23548889 C-94.85820625 38.67173802 -94.69649868 36.66523015 -92.48194885 33.80503845 C-90.2849483 32.18353714 -88.20804229 30.99727087 -85.71875 29.875 C-84.33067139 29.24271484 -84.33067139 29.24271484 -82.91455078 28.59765625 C-81.91149902 28.15292969 -80.90844727 27.70820313 -79.875 27.25 C-78.81909668 26.77433594 -77.76319336 26.29867187 -76.67529297 25.80859375 C-66.32303369 21.17058784 -55.90347004 16.68680136 -45.45703125 12.265625 C-40.66348878 10.23598062 -35.8942076 8.15959892 -31.13671875 6.046875 C-29.38560791 5.27923828 -29.38560791 5.27923828 -27.59912109 4.49609375 C-25.38938885 3.52706275 -23.18486771 2.54602401 -20.98681641 1.55078125 C-13.77214134 -1.58391077 -7.42725714 -3.85117037 0 0 Z " fill="#333E44" transform="translate(108.375,179.75)"/>
<path d="M0 0 C7.02003029 14.04006058 -4.72387268 45.6967928 -9.22216797 59.66796875 C-18.22918304 86.67205161 -33.33625295 107.04144533 -59 120 C-66.51043531 123.69173334 -74.08272234 127.27516686 -81.73828125 130.65625 C-88.02145311 133.54083195 -91.48676125 135.41770803 -94 142 C-95.3017482 146.95594136 -95.35019051 152.03130177 -95.5625 157.125 C-95.60785889 158.11532227 -95.65321777 159.10564453 -95.69995117 160.12597656 C-95.93493214 165.89621396 -96.00920993 171.63941638 -95.921875 177.4140625 C-95.90568115 178.63593262 -95.8894873 179.85780273 -95.87280273 181.11669922 C-95.83304865 183.51192303 -95.7756749 185.90692845 -95.69946289 188.30126953 C-95.68133545 189.39294434 -95.66320801 190.48461914 -95.64453125 191.609375 C-95.61721924 192.57842773 -95.58990723 193.54748047 -95.56176758 194.54589844 C-96 197 -96 197 -97.9128418 198.79394531 C-102.48884703 201.43816871 -106.82131725 201.16979288 -112 201 C-113.62633851 199.37366149 -113.13632564 197.56470494 -113.14717102 195.31785583 C-113.15432632 194.30466278 -113.16148163 193.29146973 -113.16885376 192.24757385 C-113.17154266 191.12616501 -113.17423157 190.00475616 -113.17700195 188.84936523 C-113.18357315 187.67523071 -113.19014435 186.50109619 -113.19691467 185.29138184 C-113.21672399 181.38045916 -113.22833631 177.46954993 -113.23828125 173.55859375 C-113.24232954 172.20897972 -113.24644649 170.85936589 -113.25063133 169.50975227 C-113.26971156 163.15588839 -113.28392511 156.80203619 -113.2922433 150.44814914 C-113.30196538 143.14356552 -113.32813949 135.83928901 -113.36874419 128.53481334 C-113.39910914 122.87513956 -113.41373208 117.2155526 -113.41702431 111.55579907 C-113.41935586 108.18372887 -113.4300919 104.81224289 -113.45348549 101.44021416 C-113.604576 78.19709121 -112.20020117 56.84799592 -95.25512695 39.1953125 C-93.85181424 37.78176011 -92.42613127 36.39052743 -91 35 C-90.18402344 34.18660156 -89.36804688 33.37320313 -88.52734375 32.53515625 C-67.27575304 12.3202285 -38.01914314 4.90400287 -10 0 C-8.9179126 -0.19408447 -8.9179126 -0.19408447 -7.81396484 -0.39208984 C-4.71393934 -0.90267273 -3.04345411 -1.0144847 0 0 Z M-77.8125 66.4375 C-91.8916958 81.41831917 -102.34829963 102.57412668 -102.0625 123.4375 C-102.05347656 124.30246094 -102.04445312 125.16742188 -102.03515625 126.05859375 C-102.02355469 126.69925781 -102.01195312 127.33992188 -102 128 C-99.23955834 126.61977917 -99.08718616 125.1723247 -97.96875 122.3203125 C-97.57558594 121.33788574 -97.18242187 120.35545898 -96.77734375 119.34326172 C-96.14505859 117.75022217 -96.14505859 117.75022217 -95.5 116.125 C-84.7975359 89.88758163 -71.21957673 69.89109985 -51 50 C-49.9989077 49.00109349 -48.9983884 48.00160901 -48 47 C-57.76576928 47 -71.03886656 60.01874941 -77.8125 66.4375 Z " fill="#30844E" transform="translate(235,10)"/>
<path d="M0 0 C1.89464475 0.45480269 3.78803996 0.91481243 5.6809082 1.37695312 C6.73542679 1.63255005 7.78994537 1.88814697 8.87641907 2.15148926 C12.5762202 3.15652837 16.02325641 4.51435472 19.55224609 5.99609375 C23.73235119 7.71049552 28.02185608 9.09091172 32.3125 10.5 C33.23256836 10.80478271 34.15263672 11.10956543 35.10058594 11.42358398 C39.9670341 13.02848556 44.84347936 14.58373779 49.75 16.0625 C55.07588265 17.6778375 60.31814446 19.49145218 65.55932617 21.35864258 C72.39959928 23.79433696 79.25193017 26.19453455 86.11230469 28.57293701 C87.39971196 29.01989523 88.68666917 29.46815215 89.97314453 29.91778564 C91.80515243 30.55790276 93.63888626 31.19307346 95.47265625 31.828125 C96.53750244 32.1984082 97.60234863 32.56869141 98.69946289 32.95019531 C102.41753228 34.13280485 106.21487676 35.05371919 110 36 C110 68.01 110 100.02 110 133 C104.94333279 132.15722213 102.44889374 131.43031204 98.125 129.125 C94.18208705 127.0857293 90.33890956 125.2600826 86.15625 123.7890625 C81.36930458 122.03731798 76.69604825 119.98016701 72 118 C72 117.34 72 116.68 72 116 C70.78699219 116.11730469 69.57398437 116.23460937 68.32421875 116.35546875 C61.465567 116.33809831 55.88800382 113.2183904 49.8125 110.3125 C47.90688561 109.42264939 45.99856987 108.53879046 44.08992004 107.6554718 C42.76660939 107.04283992 41.4441789 106.42830354 40.12260437 105.81193542 C35.30999619 103.57528924 30.45697537 101.45218798 25.5703125 99.3828125 C24.54314369 98.94641701 24.54314369 98.94641701 23.495224 98.50120544 C20.82212338 97.36681714 18.14860188 96.23382643 15.46817017 95.11685181 C13.61972247 94.3455611 11.77653576 93.56169888 9.93359375 92.77734375 C8.88228271 92.33640381 7.83097168 91.89546387 6.74780273 91.44116211 C3.70537296 89.84547459 2.08992407 88.73725313 0 86 C-0.37400179 83.08747474 -0.5070566 80.55955535 -0.45410156 77.65136719 C-0.45468567 76.81197601 -0.45526978 75.97258484 -0.45587158 75.10775757 C-0.45308786 72.33704071 -0.42198277 69.56740359 -0.390625 66.796875 C-0.38316362 64.87445666 -0.3774702 62.95203071 -0.37347412 61.02960205 C-0.35820967 55.9725236 -0.31892075 50.9159055 -0.2746582 45.85900879 C-0.23372306 40.69773587 -0.21546685 35.5363885 -0.1953125 30.375 C-0.15242739 20.24979787 -0.08416613 10.12493723 0 0 Z " fill="#5E6A70" transform="translate(16,217)"/>
<path d="M0 0 C3.27437284 2.80660529 5.39967519 4.63283697 6.00976562 9.01147461 C6.01685547 10.04796143 6.02394531 11.08444824 6.03125 12.15234375 C6.05316406 13.28994141 6.07507813 14.42753906 6.09765625 15.59960938 C6.10667969 16.78361328 6.11570312 17.96761719 6.125 19.1875 C6.14291165 21.53008788 6.17368176 23.87262095 6.21875 26.21484375 C6.22583984 27.2524585 6.23292969 28.29007324 6.24023438 29.35913086 C6.76142413 33.27499881 8.16901906 36.11757038 11.3125 38.5625 C18.42218681 40.67619067 25.88577936 38.90772082 32.625 36.25 C36.18997872 33.4693166 37.80764859 31.62767874 38.625 27.25 C38.69426968 24.49029592 38.7191736 21.75803958 38.6875 19 C38.68073242 17.88238281 38.68073242 17.88238281 38.67382812 16.7421875 C38.66209246 14.9114236 38.6441585 13.08070127 38.625 11.25 C42.02299588 11.25 43.73507166 11.45725167 46.8203125 12.4921875 C47.6131665 12.75257813 48.40602051 13.01296875 49.22290039 13.28125 C50.05684326 13.5596875 50.89078613 13.838125 51.75 14.125 C53.47915628 14.68893615 55.209617 15.24888949 56.94140625 15.8046875 C58.10458374 16.18343018 58.10458374 16.18343018 59.29125977 16.56982422 C62.46593173 17.49509214 65.66957228 18.07590416 68.92578125 18.6328125 C73.63309505 19.70915922 78.15904133 21.36676947 82.72387695 22.92871094 C88.64074753 24.94732802 94.58077285 26.73057513 100.609375 28.390625 C103.64822699 29.25661909 106.63490171 30.22942753 109.625 31.25 C109.625 31.91 109.625 32.57 109.625 33.25 C108.66400391 33.61351562 108.66400391 33.61351562 107.68359375 33.984375 C103.65905962 35.543807 99.75323275 37.05801938 96.0625 39.3125 C93.39288984 40.81718936 91.53195836 41.6573963 88.6875 42.5 C84.22955932 43.8827172 80.19399595 45.92307277 76.0625 48.0625 C69.86617831 51.26079082 63.62573699 53.8754768 57.07080078 56.24145508 C53.13007101 57.66843983 49.39611094 59.21360497 45.6953125 61.171875 C42.77100529 62.69472177 39.79592325 64.09680753 36.8125 65.5 C35.71292969 66.02078125 34.61335937 66.5415625 33.48046875 67.078125 C30.625 68.25 30.625 68.25 27.625 68.25 C27.625 68.91 27.625 69.57 27.625 70.25 C24.985 70.58 22.345 70.91 19.625 71.25 C19.625 71.91 19.625 72.57 19.625 73.25 C12.70851083 72.82532976 6.65594815 71.57844053 0.13671875 69.265625 C-0.72833786 68.96815369 -1.59339447 68.67068237 -2.48466492 68.36419678 C-5.22258079 67.41960601 -7.95490491 66.45985883 -10.6875 65.5 C-12.50683387 64.87144683 -14.32649341 64.2438355 -16.14648438 63.6171875 C-23.67740281 61.01297064 -31.17818055 58.36488254 -38.59765625 55.45703125 C-43.50573211 53.53827997 -48.39891912 51.99490278 -53.5 50.6875 C-60.27496154 48.87345091 -66.83806591 46.80709481 -73.375 44.25 C-75.64568633 43.37461859 -77.916525 42.49963226 -80.1875 41.625 C-81.22519531 41.22023437 -82.26289062 40.81546875 -83.33203125 40.3984375 C-86.32403112 39.26923601 -89.33878603 38.25301377 -92.375 37.25 C-92.3369984 48.41139611 -92.27771773 59.57245535 -92.19109726 70.73358631 C-92.15155011 75.91590982 -92.11939724 81.09806157 -92.10400391 86.28051758 C-92.08888487 91.27981084 -92.05452442 96.27863211 -92.00669098 101.27771568 C-91.99182796 103.18708893 -91.98395618 105.09652955 -91.98311615 107.00596046 C-91.98075947 109.67611934 -91.95378621 112.34495993 -91.92089844 115.01489258 C-91.9259288 115.80827026 -91.93095917 116.60164795 -91.93614197 117.41906738 C-91.88111718 121.82858494 -91.88111718 121.82858494 -89.34088135 125.26469421 C-88.6921405 125.58984512 -88.04339966 125.91499603 -87.375 126.25 C-88.035 126.58 -88.695 126.91 -89.375 127.25 C-91.83555603 125.77355957 -91.83555603 125.77355957 -94.375 123.25 C-94.87365287 120.26774843 -95.0500708 117.85447191 -95.00610352 114.87304688 C-95.01325882 114.0303273 -95.02041412 113.18760773 -95.02778625 112.3193512 C-95.04468741 109.53526507 -95.02526304 106.75278602 -95.00390625 103.96875 C-95.00473482 102.0334866 -95.00719375 100.09822327 -95.01121521 98.16296387 C-95.01407418 94.10761322 -94.99936233 90.05281457 -94.97192383 85.99755859 C-94.93784093 80.79854279 -94.94385834 75.60051416 -94.9625864 70.40145111 C-94.97315346 66.4054135 -94.96422124 62.40960572 -94.94920158 58.41358948 C-94.94401715 56.49663475 -94.94450474 54.57965604 -94.95074654 52.66270447 C-94.95619519 49.98359545 -94.93583557 47.30590097 -94.90844727 44.62695312 C-94.91497314 43.83410416 -94.92149902 43.04125519 -94.92822266 42.22438049 C-94.86635786 38.66670203 -94.69240845 36.6593522 -92.47996521 33.80603027 C-90.28391059 32.18266498 -88.2083426 30.99740626 -85.71875 29.875 C-84.33067139 29.24271484 -84.33067139 29.24271484 -82.91455078 28.59765625 C-81.91149902 28.15292969 -80.90844727 27.70820313 -79.875 27.25 C-78.81909668 26.77433594 -77.76319336 26.29867187 -76.67529297 25.80859375 C-66.32303369 21.17058784 -55.90347004 16.68680136 -45.45703125 12.265625 C-40.66348878 10.23598062 -35.8942076 8.15959892 -31.13671875 6.046875 C-29.38560791 5.27923828 -29.38560791 5.27923828 -27.59912109 4.49609375 C-25.38938885 3.52706275 -23.18486771 2.54602401 -20.98681641 1.55078125 C-13.77214134 -1.58391077 -7.42725714 -3.85117037 0 0 Z " fill="#404E54" transform="translate(108.375,179.75)"/>
<path d="M0 0 C6.00220586 6.13861963 11.37319348 14.03982413 11.9453125 22.8046875 C11.92210938 23.75601563 11.89890625 24.70734375 11.875 25.6875 C11.85695313 26.65429688 11.83890625 27.62109375 11.8203125 28.6171875 C11.79710938 29.34164062 11.77390625 30.06609375 11.75 30.8125 C10.76 31.3075 10.76 31.3075 9.75 31.8125 C9.09 31.1525 8.43 30.4925 7.75 29.8125 C7.28464844 29.35488281 6.81929688 28.89726562 6.33984375 28.42578125 C5.23793315 27.30762627 4.16922035 26.15614902 3.12890625 24.98046875 C-2.74214147 18.57913285 -9.65739197 14.82207952 -17.25 10.8125 C-14.74282982 13.3697024 -12.17992731 15.76131863 -9.4375 18.0625 C-2.94297956 23.73615169 3.87647547 30.47628561 6.75 38.8125 C6.375 41.58203125 6.375 41.58203125 5.75 43.8125 C-9.44501754 45.4561918 -26.86200711 37.48916531 -38.875 28.625 C-47.17423619 21.69613862 -54.59938235 14.13436895 -60.9375 5.375 C-61.3595874 4.79613037 -61.7816748 4.21726074 -62.21655273 3.62084961 C-64.46238822 0.39758604 -65.81740747 -2.26483895 -66.25 -6.1875 C-60.21669603 -8.68210652 -54.52127619 -10.05041227 -48.0625 -10.9375 C-47.13848389 -11.06527832 -46.21446777 -11.19305664 -45.26245117 -11.32470703 C-27.95681455 -13.5236405 -14.38048494 -9.67917256 0 0 Z " fill="#3A8F51" transform="translate(102.25,115.1875)"/>
<path d="M0 0 C0.66 0.66 1.32 1.32 2 2 C1.34 2 0.68 2 0 2 C0.061875 2.7425 0.12375 3.485 0.1875 4.25 C0 7 0 7 -1.40739441 8.70230103 C-3.54593696 11.78763932 -4.07965994 14.87822828 -4.66918945 18.51318359 C-4.79573316 19.29276617 -4.92227686 20.07234875 -5.05265522 20.87555504 C-6.76130647 32.76734482 -6.36840123 44.8065071 -6.29296875 56.7890625 C-6.28736117 59.43134315 -6.28309658 62.07362696 -6.28010559 64.71591187 C-6.27086783 70.90964325 -6.2463692 77.10321132 -6.21605712 83.29687154 C-6.18225167 90.36121838 -6.16596216 97.425574 -6.15097082 104.48998189 C-6.11980975 118.99340459 -6.06721467 133.4967 -6 148 C-3.36 148 -0.72 148 2 148 C2 147.34 2 146.68 2 146 C2.99 145.67 3.98 145.34 5 145 C4.99111755 144.43560715 4.98223511 143.87121429 4.9730835 143.28971863 C4.8839724 137.36781027 4.82400388 131.44609512 4.78027344 125.52368164 C4.76026914 123.31917574 4.73305678 121.11472214 4.69824219 118.91040039 C4.64922942 115.72529117 4.62691873 112.54088884 4.609375 109.35546875 C4.57840729 107.89852852 4.57840729 107.89852852 4.54681396 106.41215515 C4.54387465 97.26563334 6.97015687 88.09393309 13 81 C15.75 79.375 15.75 79.375 19 78 C20.2529965 77.35999963 21.50281459 76.71375206 22.75 76.0625 C25.73983763 74.56189708 28.75732905 73.27438463 31.875 72.0625 C36.3070527 70.33059018 40.52968703 68.32445264 44.7578125 66.14453125 C46.51812001 65.24597707 48.31598869 64.42096498 50.125 63.625 C53.52580069 61.70280831 56.19750845 59.34926937 59.0703125 56.71875 C60.97282415 55.02420521 62.94206986 53.50000242 65 52 C65.66 52.33 66.32 52.66 67 53 C67.103125 52.360625 67.20625 51.72125 67.3125 51.0625 C67.539375 50.381875 67.76625 49.70125 68 49 C68.99 48.67 69.98 48.34 71 48 C71 47.34 71 46.68 71 46 C71.7425 45.34 72.485 44.68 73.25 44 C76.49054661 40.96027599 77.55907684 37.35988823 78.91015625 33.20703125 C80.25181482 30.49005242 81.35611816 30.31438697 84 29 C85.55445267 26.61477059 85.55445267 26.61477059 86.75 23.875 C87.17796875 22.96492188 87.6059375 22.05484375 88.046875 21.1171875 C88.36140625 20.41851562 88.6759375 19.71984375 89 19 C90 22 90 22 88.48046875 25.3359375 C87.73057316 26.69038043 86.96514189 28.0362946 86.1875 29.375 C85.77733643 30.08672363 85.36717285 30.79844727 84.94458008 31.53173828 C70.21420913 56.53735946 48.03025563 68.27555702 22.26171875 79.65625 C15.97854689 82.54083195 12.51323875 84.41770803 10 91 C8.6982518 95.95594136 8.64980949 101.03130177 8.4375 106.125 C8.39214111 107.11532227 8.34678223 108.10564453 8.30004883 109.12597656 C8.06506786 114.89621396 7.99079007 120.63941638 8.078125 126.4140625 C8.09431885 127.63593262 8.1105127 128.85780273 8.12719727 130.11669922 C8.16695135 132.51192303 8.2243251 134.90692845 8.30053711 137.30126953 C8.31866455 138.39294434 8.33679199 139.48461914 8.35546875 140.609375 C8.38278076 141.57842773 8.41009277 142.54748047 8.43823242 143.54589844 C8 146 8 146 6.0871582 147.79394531 C1.51115297 150.43816871 -2.82131725 150.16979288 -8 150 C-9.62633851 148.37366149 -9.13632564 146.56470494 -9.14717102 144.31785583 C-9.15432632 143.30466278 -9.16148163 142.29146973 -9.16885376 141.24757385 C-9.17154266 140.12616501 -9.17423157 139.00475616 -9.17700195 137.84936523 C-9.18357315 136.67523071 -9.19014435 135.50109619 -9.19691467 134.29138184 C-9.21672399 130.38045916 -9.22833631 126.46954993 -9.23828125 122.55859375 C-9.24232954 121.20897972 -9.24644649 119.85936589 -9.25063133 118.50975227 C-9.26971156 112.15588839 -9.28392511 105.80203619 -9.2922433 99.44814914 C-9.30196538 92.14356552 -9.32813949 84.83928901 -9.36874419 77.53481334 C-9.39910914 71.87513956 -9.41373208 66.2155526 -9.41702431 60.55579907 C-9.41935586 57.18372887 -9.4300919 53.81224289 -9.45348549 50.44021416 C-9.57125013 32.32380261 -9.419473 16.05942937 0 0 Z " fill="#335C3B" transform="translate(131,61)"/>
<path d="M0 0 C-0.8125 1.9375 -0.8125 1.9375 -2 4 C-2.99 4.33 -3.98 4.66 -5 5 C-5.33 5.99 -5.66 6.98 -6 8 C-6.99 8.33 -7.98 8.66 -9 9 C-9.33 9.66 -9.66 10.32 -10 11 C-10.66 11 -11.32 11 -12 11 C-12.23460937 11.5775 -12.46921875 12.155 -12.7109375 12.75 C-14.29328985 15.5119241 -16.16270214 16.98747172 -18.625 19 C-23.4318426 23.21203906 -26.75114614 27.6491206 -30.13671875 33.04296875 C-31.82028342 35.71478942 -33.61539961 38.21876472 -35.5 40.75 C-39.76602876 46.79435054 -42.85450501 53.40110278 -46.05224609 60.04882812 C-47.89728457 63.847269 -49.84633965 67.59425999 -51.7734375 71.3515625 C-53.08548721 74.18458703 -54.04106411 77.0303921 -55 80 C-55.69364601 81.7974039 -56.40116478 83.5895398 -57.125 85.375 C-57.47820312 86.24898438 -57.83140625 87.12296875 -58.1953125 88.0234375 C-58.59363281 89.00183594 -58.59363281 89.00183594 -59 90 C-60.32 90 -61.64 90 -63 90 C-63 83.07 -63 76.14 -63 69 C-62.34 69 -61.68 69 -61 69 C-60.9175 67.88625 -60.835 66.7725 -60.75 65.625 C-60.21148559 61.17433682 -58.71098375 57.39153601 -56.9375 53.296875 C-55.9640036 51.08308874 -55.9640036 51.08308874 -55.52734375 48.984375 C-54.883923 46.56320653 -53.81332943 44.66760946 -52.5625 42.5 C-50.95673049 39.70068838 -49.41704403 36.89999709 -48 34 C-47.34 34 -46.68 34 -46 34 C-46 33.34 -46 32.68 -46 32 C-45.02149805 30.97895449 -44.02019573 29.9793879 -43 29 C-42.67 28.34 -42.34 27.68 -42 27 C-41.34 27 -40.68 27 -40 27 C-40 26.34 -40 25.68 -40 25 C-38.625 23.375 -38.625 23.375 -37 22 C-36.34 22 -35.68 22 -35 22 C-34.731875 21.401875 -34.46375 20.80375 -34.1875 20.1875 C-32.13174715 16.40058685 -29.81228536 14.84465421 -26 13 C-25.34 12.34 -24.68 11.68 -24 11 C-23.34 11.33 -22.68 11.66 -22 12 C-22 11.34 -22 10.68 -22 10 C-21.01 10 -20.02 10 -19 10 C-19 9.34 -19 8.68 -19 8 C-16 6 -16 6 -13 6 C-12.67 5.01 -12.34 4.02 -12 3 C-9.78515625 2.05078125 -9.78515625 2.05078125 -7.0625 1.3125 C-6.16660156 1.06113281 -5.27070313 0.80976562 -4.34765625 0.55078125 C-2 0 -2 0 0 0 Z M-36.8125 24.4375 C-50.8916958 39.41831917 -61.34829963 60.57412668 -61.0625 81.4375 C-61.05347656 82.30246094 -61.04445312 83.16742188 -61.03515625 84.05859375 C-61.02355469 84.69925781 -61.01195312 85.33992188 -61 86 C-58.23955834 84.61977917 -58.08718616 83.1723247 -56.96875 80.3203125 C-56.57558594 79.33788574 -56.18242187 78.35545898 -55.77734375 77.34326172 C-55.14505859 75.75022217 -55.14505859 75.75022217 -54.5 74.125 C-43.7975359 47.88758163 -30.21957673 27.89109985 -10 8 C-8.9989077 7.00109349 -7.9983884 6.00160901 -7 5 C-16.76576928 5 -30.03886656 18.01874941 -36.8125 24.4375 Z " fill="#305F3D" transform="translate(194,52)"/>
<path d="M0 0 C0.66 0.66 1.32 1.32 2 2 C1.34 2 0.68 2 0 2 C0.061875 2.7425 0.12375 3.485 0.1875 4.25 C0 7 0 7 -1.40739441 8.70230103 C-3.54593696 11.78763932 -4.07965994 14.87822828 -4.66918945 18.51318359 C-4.79573316 19.29276617 -4.92227686 20.07234875 -5.05265522 20.87555504 C-6.76130647 32.76734482 -6.36840123 44.8065071 -6.29296875 56.7890625 C-6.28736117 59.43134315 -6.28309658 62.07362696 -6.28010559 64.71591187 C-6.27086783 70.90964325 -6.2463692 77.10321132 -6.21605712 83.29687154 C-6.18225167 90.36121838 -6.16596216 97.425574 -6.15097082 104.48998189 C-6.11980975 118.9934067 -6.06659357 133.49669555 -6 148 C-2.04 147.67 1.92 147.34 6 147 C2.89916967 150.10083033 0.05114199 150.06433965 -4.1875 150.125 C-8 150 -8 150 -9 149 C-9.10459384 147.44202145 -9.13963393 145.87932317 -9.14717102 144.31785583 C-9.15432632 143.30466278 -9.16148163 142.29146973 -9.16885376 141.24757385 C-9.17154266 140.12616501 -9.17423157 139.00475616 -9.17700195 137.84936523 C-9.18357315 136.67523071 -9.19014435 135.50109619 -9.19691467 134.29138184 C-9.21672399 130.38045916 -9.22833631 126.46954993 -9.23828125 122.55859375 C-9.24232954 121.20897972 -9.24644649 119.85936589 -9.25063133 118.50975227 C-9.26971156 112.15588839 -9.28392511 105.80203619 -9.2922433 99.44814914 C-9.30196538 92.14356552 -9.32813949 84.83928901 -9.36874419 77.53481334 C-9.39910914 71.87513956 -9.41373208 66.2155526 -9.41702431 60.55579907 C-9.41935586 57.18372887 -9.4300919 53.81224289 -9.45348549 50.44021416 C-9.57125013 32.32380261 -9.419473 16.05942937 0 0 Z " fill="#2C6038" transform="translate(131,61)"/>
<path d="M0 0 C7.30528176 14.61056353 -5.19312055 47.54473449 -10 62 C-10.96439809 64.6823878 -11.97232295 67.34084753 -13 70 C-13.33 70 -13.66 70 -14 70 C-13.4743694 64.83603451 -12.19870605 60.24749977 -10.57446289 55.32421875 C-4.93234365 38.17008713 -2.24047623 21.05978738 -3 3 C-9.6474465 2.66199425 -15.28143653 3.60431015 -21.73046875 5.2109375 C-24.71003837 5.93002121 -27.66552749 6.49562552 -30.6875 7 C-37.21513017 8.151375 -43.47075628 9.68854029 -49.375 12.75 C-52.34283572 14.16325511 -53.00472214 13.94319388 -56 13 C-42.97899611 6.60787082 -14.31198955 -4.77066318 0 0 Z " fill="#2B5C37" transform="translate(235,10)"/>
<path d="M0 0 C0.639375 0.53625 1.27875 1.0725 1.9375 1.625 C1.9375 2.285 1.9375 2.945 1.9375 3.625 C0.9475 3.295 -0.0425 2.965 -1.0625 2.625 C-7.93834598 0.75476989 -12.16661944 0.87781835 -18.375 4.375 C-19.31601563 4.92800781 -20.25703125 5.48101562 -21.2265625 6.05078125 C-24.70470551 7.98148598 -28.22851665 9.2117761 -31.98046875 10.5 C-41.44732976 13.95558425 -50.60286502 18.38488174 -59.7578125 22.58203125 C-61.65736749 23.44166037 -63.57641069 24.25808993 -65.5 25.0625 C-68.73505552 26.481384 -71.8525473 28.02373344 -75 29.625 C-88.10414058 36.20167131 -88.10414058 36.20167131 -93.0625 34.625 C-81.61719528 28.74275568 -70.00394063 23.40347921 -58.1875 18.3125 C-56.47116061 17.57111621 -54.75485238 16.82966029 -53.03857422 16.08813477 C-50.46781226 14.97800614 -47.89670478 13.8687141 -45.32449341 12.76194763 C-40.84926869 10.83530519 -36.38354336 8.89009175 -31.93215942 6.90898132 C-29.02212114 5.61579195 -26.10392484 4.34120701 -23.1875 3.0625 C-22.17445801 2.60383545 -21.16141602 2.1451709 -20.11767578 1.67260742 C-13.28863924 -1.2860199 -7.05932965 -3.16949495 0 0 Z " fill="#353A3D" transform="translate(108.0625,179.375)"/>
<path d="M0 0 C-0.639375 0.103125 -1.27875 0.20625 -1.9375 0.3125 C-2.618125 0.539375 -3.29875 0.76625 -4 1 C-4.33 1.99 -4.66 2.98 -5 4 C-7.3359375 5.5078125 -7.3359375 5.5078125 -10.375 7.125 C-31.08725415 18.84474523 -44.74699506 37.35549142 -51.625 60 C-53.82243414 68.50093092 -54.80886869 77.31227374 -56 86 C-55.01 86.33 -54.02 86.66 -53 87 C-54.32 87 -55.64 87 -57 87 C-57 80.07 -57 73.14 -57 66 C-56.34 66 -55.68 66 -55 66 C-54.9175 64.88625 -54.835 63.7725 -54.75 62.625 C-54.21148559 58.17433682 -52.71098375 54.39153601 -50.9375 50.296875 C-49.9640036 48.08308874 -49.9640036 48.08308874 -49.52734375 45.984375 C-48.883923 43.56320653 -47.81332943 41.66760946 -46.5625 39.5 C-44.95673049 36.70068838 -43.41704403 33.89999709 -42 31 C-41.34 31 -40.68 31 -40 31 C-40 30.34 -40 29.68 -40 29 C-39.02149805 27.97895449 -38.02019573 26.9793879 -37 26 C-36.67 25.34 -36.34 24.68 -36 24 C-35.34 24 -34.68 24 -34 24 C-34 23.34 -34 22.68 -34 22 C-32.625 20.375 -32.625 20.375 -31 19 C-30.34 19 -29.68 19 -29 19 C-28.731875 18.401875 -28.46375 17.80375 -28.1875 17.1875 C-26.13174715 13.40058685 -23.81228536 11.84465421 -20 10 C-19.34 9.34 -18.68 8.68 -18 8 C-17.34 8.33 -16.68 8.66 -16 9 C-16 8.34 -16 7.68 -16 7 C-15.01 7 -14.02 7 -13 7 C-13 6.34 -13 5.68 -13 5 C-10 3 -10 3 -7 3 C-6.67 2.01 -6.34 1.02 -6 0 C-3 -1 -3 -1 0 0 Z " fill="#396B43" transform="translate(188,55)"/>
<path d="M0 0 C2.9883533 2.9883533 2.32760801 6.30671148 2.35400391 10.31762695 C2.3671463 11.17795532 2.3802887 12.03828369 2.39382935 12.92468262 C2.4333352 15.7792188 2.45662795 18.63354445 2.4765625 21.48828125 C2.48471355 22.4621044 2.49286461 23.43592754 2.50126266 24.43926048 C2.5430005 29.59320608 2.57159685 34.74704492 2.59033203 39.90112305 C2.61247034 45.22833193 2.68127037 50.55387184 2.76067543 55.8804903 C2.81293651 59.97345611 2.82970887 64.06602209 2.83689499 68.15929222 C2.84664539 70.12299057 2.86992762 72.08666997 2.90697098 74.05004311 C2.95562096 76.79944076 2.95385784 79.54449425 2.93994141 82.29418945 C2.96556152 83.10528671 2.99118164 83.91638397 3.01757812 84.75205994 C2.9744214 87.09156744 2.85225436 88.81769199 2 91 C-1.66393047 94.41233467 -5.98659555 96.52999333 -11 97 C-8.05882375 93.19377191 -6.35423333 93.52978095 -1 92 C-0.67 61.64 -0.34 31.28 0 0 Z " fill="#1E2024" transform="translate(219,210)"/>
<path d="M0 0 C0.66 0 1.32 0 2 0 C1.99111755 1.09580887 1.98223511 2.19161774 1.9730835 3.32063293 C1.89208006 13.63565792 1.83207426 23.95061857 1.79275131 34.26588917 C1.77185546 39.5694025 1.74350127 44.87265957 1.69824219 50.17602539 C1.65485583 55.29182652 1.63087795 60.4073808 1.62049103 65.52335167 C1.61308669 67.47746354 1.59862811 69.43156154 1.57707977 71.38556862 C1.54814151 74.11777823 1.54403996 76.84896122 1.54589844 79.58129883 C1.53151733 80.39337799 1.51713623 81.20545715 1.50231934 82.04214478 C1.4912492 86.51943195 1.4912492 86.51943195 4.02838135 90.02616882 C4.6790155 90.34753311 5.32964966 90.6688974 6 91 C5.01 91.495 5.01 91.495 4 92 C1.53646851 90.52653503 1.53646851 90.52653503 -1 88 C-1.48290474 85.00000609 -1.64512527 82.57160494 -1.58349609 79.57543945 C-1.58583252 78.727901 -1.58816895 77.88036255 -1.59057617 77.00714111 C-1.59218987 74.20855923 -1.55817322 71.41162901 -1.5234375 68.61328125 C-1.51664911 66.67083837 -1.5119263 64.72838726 -1.50918579 62.78593445 C-1.49850901 58.71796742 -1.47180852 54.65055 -1.43212891 50.58276367 C-1.38116008 45.35682821 -1.35610414 40.13120822 -1.34119225 34.90505695 C-1.32643497 29.93275424 -1.30118672 24.96052646 -1.2734375 19.98828125 C-1.26852673 19.03366816 -1.26361595 18.07905506 -1.25855637 17.0955143 C-1.24235378 14.4090511 -1.21895248 11.72276023 -1.19287109 9.03637695 C-1.18861115 8.23274216 -1.1843512 7.42910736 -1.17996216 6.60112 C-1.11511813 1.11511813 -1.11511813 1.11511813 0 0 Z " fill="#4A4649" transform="translate(15,215)"/>
<path d="M0 0 C4.47354034 1.43382703 7.5082914 3.8965312 10.875 7.0625 C11.4002124 7.55129639 11.9254248 8.04009277 12.46655273 8.54370117 C18.29978222 14.07848218 24.21163346 20.33199202 27 28 C26.6875 30.875 26.6875 30.875 26 33 C12.21448795 34.49122125 -2.39128727 28.01228998 -14 21 C-16.390625 18.78515625 -16.390625 18.78515625 -18 17 C-12.97954259 18.95944066 -8.06910179 21.15525614 -3.14648438 23.34570312 C6.81674144 27.80823898 6.81674144 27.80823898 17.5 29.6875 C18.5415625 29.75324219 19.583125 29.81898438 20.65625 29.88671875 C21.4296875 29.92410156 22.203125 29.96148437 23 30 C22.2786413 24.61387129 22.2786413 24.61387129 19.0625 20.625 C17 19 17 19 16.13671875 16.6484375 C14.80583713 13.54762052 13.31596304 12.16448583 10.75 10 C9.95207031 9.31808594 9.15414062 8.63617188 8.33203125 7.93359375 C6.36983059 6.30664345 4.40525275 4.68272601 2.4375 3.0625 C1.633125 2.381875 0.82875 1.70125 0 1 C0 0.67 0 0.34 0 0 Z " fill="#41774D" transform="translate(82,126)"/>
<path d="M0 0 C5.545904 0.58005234 10.67061997 1.57968543 16.015625 3.14453125 C16.75270691 3.35559006 17.48978882 3.56664886 18.24920654 3.78410339 C19.79959825 4.22931294 21.34917292 4.6773768 22.89794922 5.12817383 C25.2283104 5.80618944 27.56111833 6.47515014 29.89453125 7.14257812 C38.33180691 9.56837905 46.70156201 12.12754166 55 15 C55 15.66 55 16.32 55 17 C48.83231676 16.15666372 43.15123916 14.80363402 37.3125 12.625 C32.22753447 10.72787391 27.20503046 9.19817036 21.9375 7.9375 C7.0336138 4.35796401 7.0336138 4.35796401 1 2 C0.67 1.34 0.34 0.68 0 0 Z " fill="#292D31" transform="translate(150,190)"/>
<path d="M0 0 C0.66 0.66 1.32 1.32 2 2 C1.34 2 0.68 2 0 2 C0.061875 2.7425 0.12375 3.485 0.1875 4.25 C0 7 0 7 -1.40893555 8.71923828 C-3.50848593 11.72890525 -4.06200863 14.68995421 -4.64453125 18.2421875 C-4.77036087 19.00844452 -4.89619049 19.77470154 -5.02583313 20.56417847 C-6.85106239 33.24833491 -6.57350016 46.18455993 -6.66955566 58.97680664 C-6.69980379 62.59793979 -6.74617635 66.2188671 -6.79101562 69.83984375 C-6.87606962 76.89310966 -6.94383878 83.94643972 -7 91 C-7.33 91 -7.66 91 -8 91 C-8.09322537 81.96733877 -8.16402865 72.93484652 -8.20724869 63.90180683 C-8.22800607 59.70609189 -8.25610288 55.51070929 -8.30175781 51.31518555 C-8.34564386 47.25619999 -8.36922586 43.19753139 -8.37950897 39.13832664 C-8.38682453 37.59996752 -8.4011069 36.06162312 -8.42292023 34.52340126 C-8.59319804 22.0027134 -6.97332149 10.70902943 0 0 Z " fill="#2E6C3D" transform="translate(131,61)"/>
<path d="M0 0 C-3 1 -3 1 -5.75 -0.3125 C-6.8225 -0.869375 -7.895 -1.42625 -9 -2 C-15.70540996 -4.55226382 -22.33252863 -4.2960614 -29.4375 -4.25 C-31.22124023 -4.26160156 -31.22124023 -4.26160156 -33.04101562 -4.2734375 C-39.42149933 -4.25926652 -44.88134246 -3.76807624 -51 -2 C-53.72061968 -1.79007564 -56.263957 -1.90228418 -59 -2 C-55.53448796 -4.31034136 -52.39040709 -4.86480864 -48.375 -5.5625 C-47.65078857 -5.69108398 -46.92657715 -5.81966797 -46.18041992 -5.95214844 C-44.12183094 -6.31144899 -42.06148165 -6.6577504 -40 -7 C-38.71416016 -7.22236328 -38.71416016 -7.22236328 -37.40234375 -7.44921875 C-24.07161911 -9.36784641 -11.68719474 -6.27645643 0 0 Z " fill="#3A6940" transform="translate(96,111)"/>
<path d="M0 0 C1 3 1 3 -0.51953125 6.3359375 C-1.26972925 7.69021296 -2.03512314 9.03614068 -2.8125 10.375 C-3.21976318 11.08454834 -3.62702637 11.79409668 -4.04663086 12.52514648 C-18.40066151 36.9644629 -18.40066151 36.9644629 -29.5 39.9375 C-30.325 39.958125 -31.15 39.97875 -32 40 C-29.4837822 37.39391727 -26.94865641 35.10618315 -24 33 C-23.34 33.33 -22.68 33.66 -22 34 C-21.896875 33.360625 -21.79375 32.72125 -21.6875 32.0625 C-21.460625 31.381875 -21.23375 30.70125 -21 30 C-20.01 29.67 -19.02 29.34 -18 29 C-18 28.34 -18 27.68 -18 27 C-17.2575 26.34 -16.515 25.68 -15.75 25 C-12.50945339 21.96027599 -11.44092316 18.35988823 -10.08984375 14.20703125 C-8.74818518 11.49005242 -7.64388184 11.31438697 -5 10 C-3.44554733 7.61477059 -3.44554733 7.61477059 -2.25 4.875 C-1.82203125 3.96492188 -1.3940625 3.05484375 -0.953125 2.1171875 C-0.63859375 1.41851562 -0.3240625 0.71984375 0 0 Z " fill="#396748" transform="translate(220,80)"/>
<path d="M0 0 C6.42840814 2.57136326 10.27006232 9.80239335 12.9375 15.9375 C14.5843164 20.82774138 14.25276055 25.90734295 14 31 C13.34 31.33 12.68 31.66 12 32 C9.35247996 29.42215154 7.05567935 27.08351902 5 24 C6.98 23.67 8.96 23.34 11 23 C10.34 19.04 9.68 15.08 9 11 C8.34 11 7.68 11 7 11 C7 10.01 7 9.02 7 8 C6.01 7.67 5.02 7.34 4 7 C4 6.34 4 5.68 4 5 C3.34 5 2.68 5 2 5 C2 4.34 2 3.68 2 3 C1.34 3 0.68 3 0 3 C0 2.01 0 1.02 0 0 Z " fill="#3F6B43" transform="translate(100,115)"/>
<path d="M0 0 C0.82514784 2.83384108 1.07936233 5.16935251 0.87890625 8.109375 C0.83056641 8.86347656 0.78222656 9.61757812 0.73242188 10.39453125 C0.64831055 11.56048828 0.64831055 11.56048828 0.5625 12.75 C0.51029297 13.54277344 0.45808594 14.33554688 0.40429688 15.15234375 C0.27510676 17.10193997 0.13830035 19.05102886 0 21 C0.66 21 1.32 21 2 21 C2.02465622 25.25414623 2.04283899 29.50825498 2.05493164 33.76245117 C2.05997101 35.21070073 2.06680253 36.65894517 2.07543945 38.10717773 C2.08752247 40.18474588 2.09323211 42.26224697 2.09765625 44.33984375 C2.10289307 45.59144287 2.10812988 46.84304199 2.11352539 48.13256836 C2 51 2 51 1 52 C-0.66617115 52.04063832 -2.33388095 52.042721 -4 52 C-3.01 51.34 -2.02 50.68 -1 50 C-0.56980901 47.92604287 -0.56980901 47.92604287 -0.67529297 45.50610352 C-0.67874725 44.57496231 -0.68220154 43.64382111 -0.6857605 42.6844635 C-0.70438141 41.67612961 -0.72300232 40.66779572 -0.7421875 39.62890625 C-0.74880402 38.59563705 -0.75542053 37.56236786 -0.76223755 36.49778748 C-0.78570861 33.18572682 -0.82942554 29.87432422 -0.875 26.5625 C-0.91003762 23.2543247 -0.94084257 19.94618674 -0.96633911 16.63792419 C-0.98333931 14.57671515 -1.00650002 12.51554609 -1.03634644 10.45448303 C-1.04610504 9.52018967 -1.05586365 8.5858963 -1.06591797 7.62329102 C-1.07718719 6.80103531 -1.08845642 5.9787796 -1.10006714 5.13160706 C-1 3 -1 3 0 0 Z " fill="#316B45" transform="translate(137,156)"/>
<path d="M0 0 C-1.38733873 4.16201619 -4.19545895 5.02966116 -7.88671875 6.94140625 C-8.5813472 7.30975082 -9.27597565 7.6780954 -9.99165344 8.05760193 C-11.46460995 8.83617276 -12.94004733 9.61006524 -14.41772461 10.37963867 C-16.66650403 11.55155824 -18.90694718 12.73826552 -21.14648438 13.92773438 C-22.58025872 14.6831852 -24.0144896 15.43777034 -25.44921875 16.19140625 C-26.11507492 16.54352676 -26.78093109 16.89564728 -27.46696472 17.25843811 C-31.23404462 19.21310533 -34.91924459 20.77005914 -39 22 C-38 19 -38 19 -35.6640625 17.60546875 C-34.66117188 17.13753906 -33.65828125 16.66960937 -32.625 16.1875 C-25.31250653 12.68341574 -18.21094183 8.86330088 -11.1875 4.8125 C-2.72413793 0 -2.72413793 0 0 0 Z " fill="#28292E" transform="translate(165,330)"/>
<path d="M0 0 C-0.8125 1.9375 -0.8125 1.9375 -2 4 C-2.99 4.33 -3.98 4.66 -5 5 C-5.33 5.99 -5.66 6.98 -6 8 C-6.99 8.33 -7.98 8.66 -9 9 C-9.33 9.66 -9.66 10.32 -10 11 C-10.66 11 -11.32 11 -12 11 C-12.23074219 11.57105469 -12.46148437 12.14210938 -12.69921875 12.73046875 C-14.32735941 15.57115861 -16.31354933 17.20319082 -18.8125 19.3125 C-22.94740407 22.9268011 -26.05274289 26.38263052 -29 31 C-29.99 30.67 -30.98 30.34 -32 30 C-25.40836377 22.77411699 -18.77109583 15.65735757 -11.765625 8.828125 C-9.88421596 7.30370896 -9.88421596 7.30370896 -10 6 C-10 5.34 -10 4.68 -10 4 C-8.71086513 3.32845067 -7.41859796 2.66291141 -6.125 2 C-5.40570313 1.62875 -4.68640625 1.2575 -3.9453125 0.875 C-2 0 -2 0 0 0 Z " fill="#2D5839" transform="translate(194,52)"/>
<path d="M0 0 C0 0.66 0 1.32 0 2 C-2.08203125 3.40234375 -2.08203125 3.40234375 -4.8125 4.9375 C-7.98603182 6.7280497 -10.48763402 8.37780382 -13 11 C-15.02816426 12.50606257 -17.08905131 13.95604142 -19.16015625 15.40234375 C-21.17768375 17.15429438 -21.83453759 18.6281019 -23 21 C-24.83984375 22.8515625 -24.83984375 22.8515625 -26.9375 24.625 C-27.62714844 25.21539062 -28.31679687 25.80578125 -29.02734375 26.4140625 C-31 28 -31 28 -34 30 C-31.83383205 25.24704896 -28.51565713 21.806895 -25 18 C-24.37738281 17.32324219 -23.75476563 16.64648438 -23.11328125 15.94921875 C-18.00311417 10.61101176 -7.81837261 0 0 0 Z " fill="#356942" transform="translate(167,29)"/>
<path d="M0 0 C5.02045741 1.95944066 9.93089821 4.15525614 14.85351562 6.34570312 C22.14205298 9.56102917 29.14226899 12.25811156 37 13.6875 C37.67933594 13.81705078 38.35867187 13.94660156 39.05859375 14.08007812 C40.70453986 14.39303971 42.35210699 14.69745714 44 15 C44 15.33 44 15.66 44 16 C30.21448795 17.49122125 15.60871273 11.01228998 4 4 C1.609375 1.78515625 1.609375 1.78515625 0 0 Z " fill="#315637" transform="translate(64,143)"/>
<path d="M0 0 C4.91661577 -0.49166158 7.80252362 0.64575769 11.99609375 2.9375 C14.19646003 4.15910522 14.19646003 4.15910522 17.5 5.3125 C21.95771219 7.46175409 25.72906281 10.26178607 29 14 C29 14.99 29 15.98 29 17 C28.071875 16.13375 27.14375 15.2675 26.1875 14.375 C20.6554849 9.66212709 14.44389991 5.21866031 7.0625 4.75 C6.051875 4.8325 5.04125 4.915 4 5 C1.5625 4 1.5625 4 0 3 C0 2.01 0 1.02 0 0 Z " fill="#35613B" transform="translate(74,121)"/>
<path d="M0 0 C1.37562854 1.28965176 2.70766393 2.62689293 4 4 C4 4.66 4 5.32 4 6 C4.66 6 5.32 6 6 6 C6.48919922 6.93972656 6.48919922 6.93972656 6.98828125 7.8984375 C7.42527344 8.71570313 7.86226562 9.53296875 8.3125 10.375 C8.74175781 11.18710938 9.17101563 11.99921875 9.61328125 12.8359375 C10.96778724 15.26834043 10.96778724 15.26834043 14 17 C14.43957031 17.74636719 14.87914062 18.49273437 15.33203125 19.26171875 C17.35616991 22.58471922 19.91089332 25.129044 22.6875 27.8125 C23.19861328 28.31458984 23.70972656 28.81667969 24.23632812 29.33398438 C25.48634362 30.56063509 26.7425468 31.78097491 28 33 C24.09692614 33 22.95241548 31.36713357 20.2644043 28.73217773 C19.66152588 28.11930908 19.05864746 27.50644043 18.4375 26.875 C17.8185083 26.24988525 17.1995166 25.62477051 16.56176758 24.98071289 C12.42442561 20.7044084 8.66411784 16.26566683 5.1875 11.4375 C4.77363037 10.86692871 4.35976074 10.29635742 3.93334961 9.70849609 C1.73001943 6.52071932 0.43891286 3.86387225 0 0 Z " fill="#315E38" transform="translate(36,109)"/>
<path d="M0 0 C0.99 0.33 1.98 0.66 3 1 C3.57866093 17.45968865 3.57866093 17.45968865 0 24 C-2.4375 26.5625 -2.4375 26.5625 -5 28 C-7.16015625 27.58984375 -7.16015625 27.58984375 -9 27 C-6.36328125 25.33984375 -6.36328125 25.33984375 -3.7265625 23.6796875 C-0.37560505 20.41970627 0.10028419 16.40963257 0.1953125 11.9140625 C0.18219489 10.48424307 0.15860452 9.05448466 0.125 7.625 C0.11597656 6.88894531 0.10695312 6.15289062 0.09765625 5.39453125 C0.07430144 3.5962112 0.03843836 1.79806089 0 0 Z " fill="#313639" transform="translate(147,191)"/>
<path d="M0 0 C1.93956814 0.255602 3.87665989 0.53004646 5.8125 0.8125 C7.43091797 1.03873047 7.43091797 1.03873047 9.08203125 1.26953125 C12.21320318 2.05337215 12.90273532 2.70629731 15 5 C17.32142932 6.10847441 17.32142932 6.10847441 19.875 7 C23.49883478 8.37748106 26.75812877 9.83875251 30 12 C25.96702459 13.34432514 24.62831788 12.21571284 20.80078125 10.47265625 C20.20573288 10.20488876 19.61068451 9.93712128 18.99760437 9.66123962 C17.09831192 8.80405036 15.20548833 7.93350984 13.3125 7.0625 C12.02579383 6.47892787 10.7386887 5.89623454 9.45117188 5.31445312 C6.29608846 3.88646978 3.14666771 2.44644954 0 1 C0 0.67 0 0.34 0 0 Z " fill="#4D4E51" transform="translate(50,319)"/>
<path d="M0 0 C2.31 0.33 4.62 0.66 7 1 C7 1.66 7 2.32 7 3 C8.10408203 3.27263672 8.10408203 3.27263672 9.23046875 3.55078125 C14.31185535 4.85972496 18.58246207 6.0970465 23 9 C24.98451771 9.71143088 26.98202112 10.38991336 29 11 C28.01 11.66 27.02 12.32 26 13 C23.38037109 12.24902344 23.38037109 12.24902344 20.2734375 10.859375 C19.1596875 10.36566406 18.0459375 9.87195313 16.8984375 9.36328125 C15.73570313 8.83089844 14.57296875 8.29851562 13.375 7.75 C12.20453125 7.23308594 11.0340625 6.71617187 9.828125 6.18359375 C1.14193974 2.28387949 1.14193974 2.28387949 0 0 Z " fill="#4A4A4E" transform="translate(81,332)"/>
<path d="M0 0 C0.99 0.495 0.99 0.495 2 1 C2.33 9.58 2.66 18.16 3 27 C2.34 27 1.68 27 1 27 C-0.3308911 24.33821779 -0.11268993 22.31260604 -0.09765625 19.3359375 C-0.09443359 18.21445313 -0.09121094 17.09296875 -0.08789062 15.9375 C-0.07951172 14.761875 -0.07113281 13.58625 -0.0625 12.375 C-0.05798828 11.19164062 -0.05347656 10.00828125 -0.04882812 8.7890625 C-0.03701467 5.85932493 -0.02054258 2.92968728 0 0 Z " fill="#404041" transform="translate(112,188)"/>
<path d="M0 0 C-0.639375 0.103125 -1.27875 0.20625 -1.9375 0.3125 C-2.618125 0.539375 -3.29875 0.76625 -4 1 C-4.33 1.99 -4.66 2.98 -5 4 C-7.65234375 5.75390625 -7.65234375 5.75390625 -10.9375 7.5625 C-15.25812569 9.89717076 -15.25812569 9.89717076 -19 13 C-19.99 12.67 -20.98 12.34 -22 12 C-20.68 10.68 -19.36 9.36 -18 8 C-17.34 8.33 -16.68 8.66 -16 9 C-16 8.34 -16 7.68 -16 7 C-15.01 7 -14.02 7 -13 7 C-13 6.34 -13 5.68 -13 5 C-10 3 -10 3 -7 3 C-6.67 2.01 -6.34 1.02 -6 0 C-3 -1 -3 -1 0 0 Z " fill="#355F40" transform="translate(188,55)"/>
<path d="M0 0 C2.38564077 0.57584432 4.66682784 1.22227595 7 2 C9.57265818 2.07029121 12.11641431 2.09370832 14.6875 2.0625 C15.38939453 2.05798828 16.09128906 2.05347656 16.81445312 2.04882812 C18.54300538 2.03706927 20.27151365 2.01913454 22 2 C20 5 20 5 16.4375 5.8125 C11.77366254 6.22101131 7.37693261 5.69917506 3 4 C0.9375 1.875 0.9375 1.875 0 0 Z " fill="#3E4146" transform="translate(115,217)"/>
<path d="M0 0 C0.33 0 0.66 0 1 0 C1.144375 1.0725 1.28875 2.145 1.4375 3.25 C1.83749442 5.91662949 2.27591924 8.41399729 3 11 C2.01 11.495 2.01 11.495 1 12 C-1.64752004 9.42215154 -3.94432065 7.08351902 -6 4 C-4.02 3.67 -2.04 3.34 0 3 C0 2.01 0 1.02 0 0 Z " fill="#437648" transform="translate(111,135)"/>
<path d="M0 0 C0.66 0.99 1.32 1.98 2 3 C0.08959948 3.8680908 -1.82860737 4.71901783 -3.75 5.5625 C-4.81734375 6.03816406 -5.8846875 6.51382813 -6.984375 7.00390625 C-10 8 -10 8 -14 7 C-9.38 4.69 -4.76 2.38 0 0 Z " fill="#373D3F" transform="translate(29,207)"/>
<path d="M0 0 C6 7.2 6 7.2 6 13 C2.37 12.67 -1.26 12.34 -5 12 C-5 11.67 -5 11.34 -5 11 C-2.69 11 -0.38 11 2 11 C1.855625 10.29875 1.71125 9.5975 1.5625 8.875 C0.98521625 5.92443859 0.48304859 2.96729849 0 0 Z " fill="#366139" transform="translate(103,145)"/>
<path d="M0 0 C-1.34043117 4.0212935 -3.82244356 4.88950169 -7.375 6.75 C-7.96539062 7.07871094 -8.55578125 7.40742188 -9.1640625 7.74609375 C-10.73300126 8.58356782 -12.36512138 9.29992603 -14 10 C-14.99 9.67 -15.98 9.34 -17 9 C-14.54481265 7.49462965 -12.0861548 5.99555574 -9.625 4.5 C-8.92632812 4.07074219 -8.22765625 3.64148438 -7.5078125 3.19921875 C-2.2265625 0 -2.2265625 0 0 0 Z " fill="#2C2C2E" transform="translate(183,320)"/>
<path d="M0 0 C1.32 1.32 2.64 2.64 4 4 C3.67 4.99 3.34 5.98 3 7 C2.85222064 8.69867188 2.75252934 10.40177489 2.68359375 12.10546875 C2.64169922 13.08837891 2.59980469 14.07128906 2.55664062 15.08398438 C2.51732422 16.10814453 2.47800781 17.13230469 2.4375 18.1875 C2.39431641 19.22326172 2.35113281 20.25902344 2.30664062 21.32617188 C2.20055634 23.8839819 2.09849854 26.44188845 2 29 C1.67 29 1.34 29 1 29 C1 20.09 1 11.18 1 2 C0.34 1.67 -0.32 1.34 -1 1 C-0.67 0.67 -0.34 0.34 0 0 Z " fill="#3D4647" transform="translate(110,182)"/>
<path d="M0 0 C4.63779454 -0.42161769 7.87828716 0.93914358 12 3 C12.33 3.66 12.66 4.32 13 5 C13.78375 5.144375 14.5675 5.28875 15.375 5.4375 C18.25125721 6.05384083 19.16384707 6.77728856 21 9 C16.18080529 8.32512263 12.08116134 6.42034091 7.6875 4.4375 C6.94693359 4.10814453 6.20636719 3.77878906 5.44335938 3.43945312 C3.62688438 2.63082877 1.81316069 1.81602884 0 1 C0 0.67 0 0.34 0 0 Z " fill="#4C5157" transform="translate(29,310)"/>
<path d="M0 0 C2.14698202 0.64200436 4.29255953 1.28870746 6.4375 1.9375 C8.22994141 2.47697266 8.22994141 2.47697266 10.05859375 3.02734375 C13 4 13 4 14 5 C14.04063832 6.66617115 14.042721 8.33388095 14 10 C13.67 8.68 13.34 7.36 13 6 C12.34 6.061875 11.68 6.12375 11 6.1875 C6.90915946 5.93182247 3.79333016 4.54304956 0 3 C0 2.01 0 1.02 0 0 Z " fill="#363739" transform="translate(205,205)"/>
<path d="M0 0 C0 0.66 0 1.32 0 2 C-2.08203125 3.40234375 -2.08203125 3.40234375 -4.8125 4.9375 C-8.4924323 6.96765812 -8.4924323 6.96765812 -11.57421875 9.75390625 C-12.27998047 10.37072266 -12.27998047 10.37072266 -13 11 C-15.1875 10.6875 -15.1875 10.6875 -17 10 C-15.43902526 8.8936781 -13.87614673 7.79004215 -12.3125 6.6875 C-11.44238281 6.07261719 -10.57226562 5.45773438 -9.67578125 4.82421875 C-2.59957173 0 -2.59957173 0 0 0 Z " fill="#3D6C4A" transform="translate(167,29)"/>
<path d="M0 0 C0.66 0 1.32 0 2 0 C1.67 5.61 1.34 11.22 1 17 C-1.40503353 13.3924497 -1.2396541 11.65163611 -1.1875 7.375 C-1.18105469 6.20710937 -1.17460937 5.03921875 -1.16796875 3.8359375 C-1 1 -1 1 0 0 Z " fill="#444446" transform="translate(15,215)"/>
<path d="M0 0 C-2.98796724 1.99197816 -5.48014588 2.9492249 -8.875 4.0625 C-9.90367187 4.40410156 -10.93234375 4.74570312 -11.9921875 5.09765625 C-14.65568891 5.89670667 -17.26509169 6.51054224 -20 7 C-17.46635087 3.95088432 -14.85029365 3.02484619 -11.125 1.8125 C-10.09632813 1.46832031 -9.06765625 1.12414062 -8.0078125 0.76953125 C-5.18414215 0.04711169 -2.89527739 -0.15491337 0 0 Z " fill="#356642" transform="translate(199,17)"/>
<path d="M0 0 C0.66 0 1.32 0 2 0 C0.44298069 4.67105792 -2.08447373 8.08705685 -5 12 C-5.99 11.67 -6.98 11.34 -8 11 C-6.71632558 9.16106176 -5.42283239 7.32897375 -4.125 5.5 C-3.04605469 3.96859375 -3.04605469 3.96859375 -1.9453125 2.40625 C-1.30335938 1.6121875 -0.66140625 0.818125 0 0 Z " fill="#376343" transform="translate(162,83)"/>
<path d="M0 0 C3.2826932 1.49076434 5.93077441 3.38620321 8.75 5.625 C9.94882813 6.57246094 9.94882813 6.57246094 11.171875 7.5390625 C11.77515625 8.02117187 12.3784375 8.50328125 13 9 C11.2265625 9.66796875 11.2265625 9.66796875 9 10 C7.1484375 8.92578125 7.1484375 8.92578125 5.375 7.3125 C4.78460938 6.79300781 4.19421875 6.27351562 3.5859375 5.73828125 C1.93581514 3.9296496 0.98203226 2.23144954 0 0 Z " fill="#418749" transform="translate(80,126)"/>
<path d="M0 0 C1.96048352 0.2548029 3.91840673 0.52936944 5.875 0.8125 C7.51082031 1.03873047 7.51082031 1.03873047 9.1796875 1.26953125 C12 2 12 2 14 5 C8.72250715 4.46148032 4.74354436 3.22656164 0 1 C0 0.67 0 0.34 0 0 Z " fill="#525659" transform="translate(50,319)"/>
<path d="M0 0 C-1.05098766 2.86632997 -1.66862954 3.83006643 -4.4375 5.25 C-7 6 -7 6 -10 6 C-10 5.34 -10 4.68 -10 4 C-8.71086513 3.32845067 -7.41859796 2.66291141 -6.125 2 C-5.40570313 1.62875 -4.68640625 1.2575 -3.9453125 0.875 C-2 0 -2 0 0 0 Z " fill="#1D471F" transform="translate(194,52)"/>
<path d="M0 0 C1.12758089 3.38274266 0.81750262 4.76778223 0.0625 8.1875 C-0.13214844 9.08855469 -0.32679688 9.98960938 -0.52734375 10.91796875 C-0.68332031 11.60503906 -0.83929688 12.29210938 -1 13 C-1.33 13 -1.66 13 -2 13 C-2.02578125 12.30132812 -2.0515625 11.60265625 -2.078125 10.8828125 C-2.13484375 9.97273438 -2.1915625 9.06265625 -2.25 8.125 C-2.29640625 7.22007813 -2.3428125 6.31515625 -2.390625 5.3828125 C-2.75611148 2.82889456 -2.75611148 2.82889456 -5.046875 1.6796875 C-5.69140625 1.45539062 -6.3359375 1.23109375 -7 1 C-2.25 0 -2.25 0 0 0 Z " fill="#296F3E" transform="translate(235,10)"/>
<path d="M0 0 C5.53846154 -0.36923077 5.53846154 -0.36923077 7.875 1.5 C8.24625 1.995 8.6175 2.49 9 3 C3.375 4.125 3.375 4.125 0 3 C0 2.01 0 1.02 0 0 Z " fill="#29662F" transform="translate(74,121)"/>
<path d="M0 0 C0.66 0 1.32 0 2 0 C1.34 2.64 0.68 5.28 0 8 C-1.32 8.33 -2.64 8.66 -4 9 C-3.38722388 6.03824877 -2.74627478 4.61941217 -1 2 C-0.67 1.34 -0.34 0.68 0 0 Z " fill="#296235" transform="translate(136,132)"/>
<path d="M0 0 C-3.12488567 2.52394612 -6.31314387 4.39701907 -10 6 C-10.66 5.67 -11.32 5.34 -12 5 C-10.7410501 2.4821002 -9.60942883 2.07291536 -7.125 0.8125 C-6.42632812 0.44769531 -5.72765625 0.08289063 -5.0078125 -0.29296875 C-3 -1 -3 -1 0 0 Z " fill="#242126" transform="translate(138,346)"/>
<path d="M0 0 C7.75 0.75 7.75 0.75 10 3 C5.70700357 4.26264601 3.12168689 3.62950412 -1 2 C-0.67 1.34 -0.34 0.68 0 0 Z " fill="#303438" transform="translate(165,194)"/>
<path d="M0 0 C0.66 0.33 1.32 0.66 2 1 C1.67 2.98 1.34 4.96 1 7 C-1.97 6.67 -4.94 6.34 -8 6 C-8 5.67 -8 5.34 -8 5 C-6.576875 4.87625 -6.576875 4.87625 -5.125 4.75 C-1.89538209 4.34925077 -1.89538209 4.34925077 -0.625 1.9375 C-0.41875 1.298125 -0.2125 0.65875 0 0 Z " fill="#3E864C" transform="translate(97,149)"/>
<path d="M0 0 C0.33 0 0.66 0 1 0 C1.66 4.95 2.32 9.9 3 15 C2.34 15 1.68 15 1 15 C-0.44207941 12.11584117 -0.09394887 9.58278472 -0.0625 6.375 C-0.05347656 5.18648437 -0.04445313 3.99796875 -0.03515625 2.7734375 C-0.02355469 1.85820312 -0.01195313 0.94296875 0 0 Z " fill="#313738" transform="translate(112,200)"/>
<path d="M0 0 C4.98012761 1.50912958 8.24259942 4.55661849 12 8 C8.43827265 8 7.63465243 7.25329283 4.875 5.125 C4.17117187 4.59132812 3.46734375 4.05765625 2.7421875 3.5078125 C1 2 1 2 0 0 Z " fill="#3C663D" transform="translate(82,126)"/>
<path d="M0 0 C0.99 0.66 1.98 1.32 3 2 C2.07213211 3.00894372 1.13231567 4.00690907 0.1875 5 C-0.59560547 5.8353125 -0.59560547 5.8353125 -1.39453125 6.6875 C-3 8 -3 8 -6 8 C-6 7.34 -6 6.68 -6 6 C-4.34997172 4.64613064 -2.6825613 3.31321858 -1 2 C-0.67 1.34 -0.34 0.68 0 0 Z " fill="#357C47" transform="translate(138,53)"/>
<path d="M0 0 C2.16796875 0.92578125 2.16796875 0.92578125 4 2 C2.71086513 2.67154933 1.41859796 3.33708859 0.125 4 C-0.59429687 4.37125 -1.31359375 4.7425 -2.0546875 5.125 C-4 6 -4 6 -6 6 C-5 3 -5 3 -2.6875 1.1875 C-1.800625 0.795625 -0.91375 0.40375 0 0 Z " fill="#2B242A" transform="translate(194,313)"/>
<path d="M0 0 C0.99 0.33 1.98 0.66 3 1 C-1.75 5.875 -1.75 5.875 -4 7 C-3.43628586 3.73045798 -2.50037734 2.17424117 0 0 Z " fill="#43704C" transform="translate(164,67)"/>
<path d="M0 0 C3.81684226 1.55500981 6.19195732 4.03595495 9 7 C8.67 7.66 8.34 8.32 8 9 C6.84775972 8.07038578 5.70340824 7.1309875 4.5625 6.1875 C3.60537109 5.40439453 3.60537109 5.40439453 2.62890625 4.60546875 C1 3 1 3 0 0 Z " fill="#376A44" transform="translate(95,129)"/>
<path d="M0 0 C1.98 0 3.96 0 6 0 C3.14693203 2.32472205 0.45925163 3.7508258 -3 5 C-2.67 4.01 -2.34 3.02 -2 2 C-1.34 2 -0.68 2 0 2 C0 1.34 0 0.68 0 0 Z " fill="#313136" transform="translate(204,307)"/>
<path d="M0 0 C2.64 0.33 5.28 0.66 8 1 C8.33 1.99 8.66 2.98 9 4 C6.03 3.01 3.06 2.02 0 1 C0 0.67 0 0.34 0 0 Z " fill="#52555A" transform="translate(20,306)"/>
<path d="M0 0 C0.99 0 1.98 0 3 0 C3 0.99 3 1.98 3 3 C-0.63 2.67 -4.26 2.34 -8 2 C-8 1.67 -8 1.34 -8 1 C-6.865625 1.020625 -5.73125 1.04125 -4.5625 1.0625 C-1.18424326 1.41577477 -1.18424326 1.41577477 0 0 Z " fill="#3D6E48" transform="translate(106,155)"/>
<path d="M0 0 C1.98 0 3.96 0 6 0 C5.34 1.98 4.68 3.96 4 6 C2.62437146 4.71034824 1.29233607 3.37310707 0 2 C0 1.34 0 0.68 0 0 Z " fill="#41824A" transform="translate(37,109)"/>
<path d="M0 0 C0.66 0.33 1.32 0.66 2 1 C-2.30769231 4.93846154 -2.30769231 4.93846154 -5.8125 5.25 C-6.534375 5.1675 -7.25625 5.085 -8 5 C-5.45378681 2.99940392 -3.01962385 1.20784954 0 0 Z " fill="#3A6E45" transform="translate(175,24)"/>
<path d="M0 0 C0.99 0.33 1.98 0.66 3 1 C0.75 3.0625 0.75 3.0625 -2 5 C-4.3125 4.75 -4.3125 4.75 -6 4 C-3.1875 1.9375 -3.1875 1.9375 0 0 Z " fill="#393D40" transform="translate(144,214)"/>
<path d="" fill="#000000" transform="translate(0,0)"/>
<path d="" fill="#000000" transform="translate(0,0)"/>
<path d="" fill="#000000" transform="translate(0,0)"/>
<path d="" fill="#000000" transform="translate(0,0)"/>
<path d="" fill="#000000" transform="translate(0,0)"/>
<path d="" fill="#000000" transform="translate(0,0)"/>
<path d="" fill="#000000" transform="translate(0,0)"/>
<path d="" fill="#000000" transform="translate(0,0)"/>
<path d="" fill="#000000" transform="translate(0,0)"/>
<path d="" fill="#000000" transform="translate(0,0)"/>
<path d="" fill="#000000" transform="translate(0,0)"/>
<path d="" fill="#000000" transform="translate(0,0)"/>
<path d="" fill="#000000" transform="translate(0,0)"/>
<path d="" fill="#000000" transform="translate(0,0)"/>
<path d="" fill="#000000" transform="translate(0,0)"/>
<path d="" fill="#000000" transform="translate(0,0)"/>
<path d="" fill="#000000" transform="translate(0,0)"/>
<path d="" fill="#000000" transform="translate(0,0)"/>
<path d="" fill="#000000" transform="translate(0,0)"/>
<path d="" fill="#000000" transform="translate(0,0)"/>
<path d="" fill="#000000" transform="translate(0,0)"/>
<path d="" fill="#000000" transform="translate(0,0)"/>
<path d="" fill="#000000" transform="translate(0,0)"/>
<path d="" fill="#000000" transform="translate(0,0)"/>
<path d="" fill="#000000" transform="translate(0,0)"/>
<path d="" fill="#000000" transform="translate(0,0)"/>
<path d="" fill="#000000" transform="translate(0,0)"/>
<path d="" fill="#000000" transform="translate(0,0)"/>
<path d="" fill="#000000" transform="translate(0,0)"/>
<path d="" fill="#000000" transform="translate(0,0)"/>
<path d="" fill="#000000" transform="translate(0,0)"/>
<path d="" fill="#000000" transform="translate(0,0)"/>
<path d="" fill="#000000" transform="translate(0,0)"/>
<path d="" fill="#000000" transform="translate(0,0)"/>
<path d="" fill="#000000" transform="translate(0,0)"/>
<path d="" fill="#000000" transform="translate(0,0)"/>
<path d="" fill="#000000" transform="translate(0,0)"/>
<path d="" fill="#000000" transform="translate(0,0)"/>
<path d="" fill="#000000" transform="translate(0,0)"/>
<path d="" fill="#000000" transform="translate(0,0)"/>
<path d="" fill="#000000" transform="translate(0,0)"/>
<path d="" fill="#000000" transform="translate(0,0)"/>
<path d="" fill="#000000" transform="translate(0,0)"/>
<path d="" fill="#000000" transform="translate(0,0)"/>
<path d="" fill="#000000" transform="translate(0,0)"/>
<path d="" fill="#000000" transform="translate(0,0)"/>
<path d="" fill="#000000" transform="translate(0,0)"/>
<path d="" fill="#000000" transform="translate(0,0)"/>
<path d="" fill="#000000" transform="translate(0,0)"/>
<path d="" fill="#000000" transform="translate(0,0)"/>
<path d="" fill="#000000" transform="translate(0,0)"/>
<path d="" fill="#000000" transform="translate(0,0)"/>
<path d="" fill="#000000" transform="translate(0,0)"/>
<path d="" fill="#000000" transform="translate(0,0)"/>
<path d="" fill="#000000" transform="translate(0,0)"/>
<path d="" fill="#000000" transform="translate(0,0)"/>
<path d="" fill="#000000" transform="translate(0,0)"/>
<path d="" fill="#000000" transform="translate(0,0)"/>
<path d="" fill="#000000" transform="translate(0,0)"/>
<path d="" fill="#000000" transform="translate(0,0)"/>
</svg>
